<svg width="20" height="20" viewBox="0 0 21 20" fill="red" xmlns="http://www.w3.org/2000/svg">
<path d="M19.9139 3.12941C19.6833 1.90588 19.0078 0.941176 18.1512 0.611765C16.5861 0 10.3258 0 10.3258 0C10.3258 0 4.06555 0 2.50049 0.588235C1.66029 0.917647 0.968368 1.90588 0.737727 3.12941C0.325867 5.36471 0.325867 10 0.325867 10C0.325867 10 0.325867 14.6588 0.737727 16.8706C0.968368 18.0941 1.64382 19.0588 2.50049 19.3882C4.08203 20 10.3258 20 10.3258 20C10.3258 20 16.5861 20 18.1512 19.4118C19.0078 19.0824 19.6833 18.1176 19.9139 16.8941C20.3258 14.6588 20.3258 10.0235 20.3258 10.0235C20.3258 10.0235 20.3423 5.36471 19.9139 3.12941Z" fill="black"/>
<path d="M7.09495 10.731L8.28137 14.0148C8.28137 14.0148 8.4297 14.3221 8.58853 14.3221C8.74737 14.3221 11.1098 11.8644 11.1098 11.8644L13.7369 6.79025L7.13728 9.88333L7.09495 10.731Z" fill="#C8DAEA"/>
<path d="M8.66803 11.5732L8.44028 13.9937C8.44028 13.9937 8.34495 14.7353 9.08645 13.9937C9.82795 13.252 10.5377 12.6801 10.5377 12.6801" fill="#A9C6D8"/>
<path d="M7.11637 10.8482L4.67587 10.053C4.67587 10.053 4.3842 9.93467 4.47812 9.66633C4.49745 9.611 4.53645 9.56392 4.65312 9.483C5.19387 9.10608 14.662 5.703 14.662 5.703C14.662 5.703 14.9293 5.61292 15.087 5.67283C15.126 5.68491 15.1611 5.70712 15.1887 5.73721C15.2163 5.7673 15.2354 5.80418 15.244 5.84408C15.2611 5.91456 15.2682 5.98706 15.2652 6.0595C15.2645 6.12217 15.2569 6.18025 15.2511 6.27133C15.1935 7.20175 13.4678 14.1457 13.4678 14.1457C13.4678 14.1457 13.3645 14.5521 12.9946 14.566C12.9037 14.5689 12.8131 14.5535 12.7283 14.5207C12.6435 14.4879 12.5661 14.4383 12.5009 14.375C11.775 13.7506 9.26595 12.0644 8.71153 11.6936C8.69903 11.6851 8.6885 11.674 8.68065 11.661C8.6728 11.6481 8.66782 11.6336 8.66603 11.6186C8.65828 11.5795 8.70078 11.5311 8.70078 11.5311C8.70078 11.5311 13.0696 7.64775 13.1859 7.24008C13.1949 7.2085 13.1609 7.19292 13.1152 7.20675C12.825 7.3135 7.79487 10.4901 7.2397 10.8407C7.19974 10.8528 7.1575 10.8553 7.11637 10.8482Z" fill="white"/>
</svg>
