<svg width="20" height="20" viewBox="0 0 24 24" fill="none" xmlns="http://www.w3.org/2000/svg">
<path fill-rule="evenodd" clip-rule="evenodd" d="M8.32 0H15.68C22.4 0 24 1.6 24 8.32V15.68C24 22.4 22.4 24 15.68 24H8.32C1.6 24 0 22.4 0 15.68V8.32C0 1.6 1.6 0 8.32 0Z" fill="black"/>
<path fill-rule="evenodd" clip-rule="evenodd" d="M19.6543 8.26825C19.7655 7.8975 19.6543 7.625 19.125 7.625H17.375C16.93 7.625 16.725 7.86038 16.6138 8.12C16.6138 8.12 15.7238 10.2891 14.463 11.6981C14.0551 12.106 13.8698 12.2358 13.6473 12.2358C13.536 12.2358 13.375 12.106 13.375 11.7353V8.26825C13.375 7.82325 13.2459 7.625 12.875 7.625H10.125C9.847 7.625 9.67975 7.8315 9.67975 8.02725C9.67975 8.44913 10.31 8.54638 10.375 9.73288V12.31C10.375 12.875 10.273 12.9775 10.0505 12.9775C9.45725 12.9775 8.01425 10.7985 7.15825 8.30538C6.9905 7.82075 6.82225 7.625 6.375 7.625H4.625C4.125 7.625 4.025 7.86038 4.025 8.12C4.025 8.5835 4.61838 10.8825 6.7875 13.923C8.23363 15.9994 10.271 17.125 12.125 17.125C13.2375 17.125 13.375 16.875 13.375 16.4444V14.875C13.375 14.375 13.4804 14.2753 13.8326 14.2753C14.0923 14.2753 14.5371 14.405 15.5755 15.4061C16.762 16.5928 16.9575 17.125 17.625 17.125H19.375C19.875 17.125 20.125 16.875 19.9808 16.3816C19.823 15.8899 19.2565 15.1766 18.5048 14.3309C18.0969 13.8488 17.485 13.3296 17.2998 13.0701C17.0401 12.7364 17.1143 12.588 17.2998 12.2914C17.2998 12.2914 19.4318 9.288 19.6543 8.26825Z" fill="white"/>
</svg>
