<svg width="20" height="20" viewBox="0 0 24 24" fill="none" xmlns="http://www.w3.org/2000/svg">
<path d="M23.5057 3.75529C23.2289 2.28706 22.4184 1.12941 21.3904 0.734118C19.5123 0 12 0 12 0C12 0 4.48763 0 2.60954 0.705882C1.60131 1.10118 0.771002 2.28706 0.494232 3.75529C0 6.43765 0 12 0 12C0 12 0 17.5906 0.494232 20.2447C0.771002 21.7129 1.58154 22.8706 2.60954 23.2659C4.50739 24 12 24 12 24C12 24 19.5123 24 21.3904 23.2941C22.4184 22.8988 23.2289 21.7412 23.5057 20.2729C23.9999 17.5906 23.9999 12.0282 23.9999 12.0282C23.9999 12.0282 24.0197 6.43765 23.5057 3.75529Z" fill="black"/>
<path d="M17.7826 12.0002L8.41187 6.86133V17.1391L17.7826 12.0002Z" fill="white"/>
</svg>
