<svg width="17" height="16" viewBox="0 0 17 16" fill="red" xmlns="http://www.w3.org/2000/svg">
<path d="M3.00684 5.06678C3.00684 4.77223 3.24562 4.53345 3.54017 4.53345H14.2068C14.5014 4.53345 14.7402 4.77223 14.7402 5.06678C14.7402 5.36133 14.5014 5.60011 14.2068 5.60011H3.54017C3.24562 5.60011 3.00684 5.36133 3.00684 5.06678Z" fill="red"/>
<path d="M3.00684 8.00013C3.00684 7.70558 3.24562 7.4668 3.54017 7.4668H14.2068C14.5014 7.4668 14.7402 7.70558 14.7402 8.00013C14.7402 8.29468 14.5014 8.53346 14.2068 8.53346H3.54017C3.24562 8.53346 3.00684 8.29468 3.00684 8.00013Z" fill="red"/>
<path d="M3.54017 10.4001C3.24562 10.4001 3.00684 10.6389 3.00684 10.9335C3.00684 11.228 3.24562 11.4668 3.54017 11.4668H14.2068C14.5014 11.4668 14.7402 11.228 14.7402 10.9335C14.7402 10.6389 14.5014 10.4001 14.2068 10.4001H3.54017Z" fill="red"/>
</svg>
