<svg width="24" height="24" viewBox="0 0 24 24" fill="none" xmlns="http://www.w3.org/2000/svg">
<path fill-rule="evenodd" clip-rule="evenodd" d="M5.43451 5.43427C5.74693 5.12185 6.25346 5.12185 6.56588 5.43427L12.0002 10.8686L17.4345 5.43427C17.7469 5.12185 18.2535 5.12185 18.5659 5.43427C18.8783 5.74669 18.8783 6.25322 18.5659 6.56564L13.1316 12L18.5659 17.4343C18.8783 17.7467 18.8783 18.2532 18.5659 18.5656C18.2535 18.8781 17.7469 18.8781 17.4345 18.5656L12.0002 13.1313L6.56588 18.5656C6.25346 18.8781 5.74693 18.8781 5.43451 18.5656C5.12209 18.2532 5.12209 17.7467 5.43451 17.4343L10.8688 12L5.43451 6.56564C5.12209 6.25322 5.12209 5.74669 5.43451 5.43427Z" fill="#EDECF0"/>
</svg>
